<?xml version="1.0" encoding="UTF-8" standalone="no"?>
<svg
   xmlns:svg="http://www.w3.org/2000/svg"
   xmlns="http://www.w3.org/2000/svg"
   version="1.1"
   width="634.89099"
   height="211.2957"
   id="svg4192">
  <defs
     id="defs4194" />
  <g
     transform="translate(-32.55449,-426.71433)"
     id="layer1">
    <path
       d="m 615.43649,567.52592 -12.92969,0 0.78419,-12.89256 0.31552,-5.46374 -19.55577,0 -12.28239,18.3563 -65.82239,0 100.39358,-135.81159 56.10597,0 -0.0859,135.81159 -46.92319,0 z m -188.23609,0 -17.38884,0 49.48221,-135.81159 59.73454,0 c 11.22676,0.0557 20.5418,1.36884 28.64809,5.50087 7.39866,3.80025 13.45401,10.1085 16.68586,17.79948 2.4059,5.64007 3.51953,11.80214 3.5056,18.1591 0,1.84909 -0.0812,3.71442 -0.25056,5.63774 -0.76794,7.99493 -2.73766,16.20098 -5.81406,24.60423 -4.61924,12.6652 -9.73498,22.9477 -15.98057,31.01686 -5.80942,7.48451 -12.51903,13.87858 -20.04762,19.06392 -7.37548,5.0786 -14.93886,8.73501 -22.73426,10.63283 -8.9995,2.22261 -17.11507,3.39656 -24.57638,3.39656 l -51.26401,0 z m -23.71863,-135.80837 -13.15008,36.12331 -11.47269,-36.12331 -49.57037,0 -2.91864,8.00883 -46.51021,127.80042 58.28915,0 13.01088,-35.79386 11.36829,35.79386 49.98799,0 49.40332,-135.80925 -58.43763,0 z m -187.07699,0 -2.90472,8.00883 -46.52181,127.80042 120.09783,0 18.06397,-49.60981 -5.82335,0 13.8438,-38.03503 4.19002,0 17.5118,-48.16441 -118.45755,0 z m -54.71788,0.002 -20.33764,16.69977 0.14616,-0.36889 5.93704,-16.33088 -60.463044,0 -2.897754,8.01116 -46.517172,127.80506 60.453764,0 11.493566,-31.57831 5.37094,-4.07172 5.27118,35.65003 68.48349,0 -18.78784,-76.85657 78.53397,-58.95965 -86.68666,0 z"
       id="path782"
       style="fill:#ffffff;fill-opacity:1;fill-rule:nonzero;stroke:none" />
    <path
       d="m 520.54447,588.12897 3.08104,0 c 0.57538,0 3.47313,-0.0696 3.47313,-1.457 -0.051,-0.0112 -0.40137,-0.0998 -1.00923,-0.0998 l -5.21549,0 -0.32945,1.55676 z m 78.82167,12.09446 1.67741,0 8.18052,0 c -3.44761,-2.53814 -6.57272,-6.48456 -7.11098,-12.67911 l -0.123,0 -0.62642,3.02999 -1.99757,9.64912 z m 22.8781,7.30819 c 0.25056,0 1.03242,0.0997 2.77943,0.0997 0.76329,0 1.44308,-0.16473 1.9442,-0.35729 -1.15075,-0.4733 -2.95342,-1.00226 -4.37098,-1.4222 -0.35265,-0.11138 -0.72154,-0.21576 -1.09275,-0.32016 0.10212,1.515 0.4849,1.90708 0.6589,2.08108 -0.0604,-0.0604 -0.0371,-0.0813 0.0812,-0.0813 m -78.29501,-7.85572 c 1.689,3.45921 1.689,7.39867 1.689,9.41016 0,0.83523 -0.0185,1.67509 -0.0325,2.5103 l 3.48706,-16.7485 c -1.35957,1.91638 -3.08569,3.54969 -5.14358,4.82804 m 79.71952,28.80817 c -9.14102,0 -16.82273,-2.77943 -21.61597,-7.82323 -1.3874,-1.45933 -2.51959,-3.09497 -3.39889,-4.88373 l -1.62172,7.83716 -0.74706,3.60537 -3.68425,0 -43.88623,0 -6.85577,0 -15.69519,0 -2.93953,0 -1.1925,-2.69823 c -0.99067,-2.21797 -1.06723,-4.42204 -1.06723,-7.05994 0,-1.5614 0.22737,-3.19936 0.45241,-4.7654 0.17632,-1.28995 0.37353,-2.58222 0.37353,-3.74225 -0.0951,-0.0441 -0.67977,-0.33641 -2.1275,-0.33641 l -3.41279,0 -3.12744,15.0015 -0.7517,3.60073 -3.67961,0 -16.13833,0 -4.76076,0 -3.69122,0 -16.43066,0 -5.55421,0 1.1229,-5.44518 7.08779,-34.23014 -0.42458,0 -11.1038,0 -7.46826,36.06995 -0.74706,3.60537 -3.68425,0 -16.44458,0 -5.55422,0 1.12755,-5.44518 7.09241,-34.23014 -9.23615,0 -5.55886,0 1.12291,-5.44982 2.84208,-13.67674 0.7401,-3.60537 3.68657,0 46.04155,0 2.27366,0 3.68889,0 16.43066,0 4.76771,0 3.68427,0 27.05883,0 c 12.91577,0 20.19148,4.92316 21.64847,14.63028 l 2.30382,-11.02491 0.74938,-3.60537 3.67728,0 44.09272,0 5.53335,0 -1.10899,5.42661 -0.37585,1.86532 c 5.16212,-5.64933 13.51897,-8.55637 21.79926,-8.55637 8.91831,0 15.99216,2.40822 20.44204,6.96482 3.70977,3.79562 5.5171,8.86263 5.38021,15.07342 l -0.109,4.41507 -4.42204,0 -5.68182,0 c 5.09717,3.70514 7.6794,8.73966 7.6794,15.0595 0,15.37271 -14.389,23.42331 -28.60169,23.42331"
       id="path790"
       style="fill:#231f20;fill-opacity:1;fill-rule:nonzero;stroke:none" />
    <path
       d="m 628.9847,559.02337 c -5.22478,0 -10.4797,1.02315 -15.1523,3.03464 l 0.35961,-1.76557 -11.06205,0 -44.08806,0 -7.36155,0 -1.25979,6.06928 c -3.95802,-3.55898 -10.15954,-6.06928 -19.7669,-6.06928 l -24.37686,0 -11.11771,0 -11.27781,0 -11.127,0 -46.03228,0 -7.36619,0 -1.49411,7.2061 -2.84671,13.66979 -2.25974,10.89499 11.12236,0 3.67497,0 -5.9579,28.79425 -2.26207,10.88339 11.12237,0 16.43528,0 7.37084,0 1.49179,-7.21538 6.72354,-32.46226 2.29917,0 -5.96487,28.78961 -2.25974,10.88803 11.11772,0 13.76492,0 11.1154,0 16.13832,0 7.35226,0 1.37812,-6.5936 c 0.14152,0.40601 0.30161,0.81666 0.48721,1.22267 l 2.39199,5.37093 5.87438,0 10.6073,0 11.13164,0 44.68665,0 7.37082,0 1.19484,-5.76303 c 5.61454,4.55428 13.47721,7.0321 22.51384,7.0321 16.45386,0 33.11652,-9.59807 33.11652,-27.94974 0,-3.23185 -0.57537,-6.93233 -2.39662,-10.53307 l 4.72364,0 0.20185,-8.84174 c 0.21809,-9.29647 -3.50098,-15.1059 -6.66321,-18.33774 -5.32222,-5.44518 -13.50971,-8.32437 -23.67388,-8.32437 m -156.23042,10.31962 -2.84903,13.66978 -14.79965,0 -8.21534,39.67765 -16.43529,0 8.21997,-39.67765 -14.79733,0 2.84439,-13.66978 46.03228,0 m 22.40481,0 -11.05508,53.34743 -16.4353,0 11.05508,-53.34743 16.4353,0 m 19.80634,23.31194 8.6631,0 c 5.4591,0 7.99723,-2.77015 7.99723,-5.98342 0,-2.08574 -1.26907,-4.63084 -5.53334,-4.63084 l -8.88582,0 -2.24117,10.61426 m 15.68823,-23.31194 c 9.86257,0 17.4074,2.69127 17.4074,13.96907 0,7.77452 -4.77932,13.4517 -12.47496,14.72541 l 0,0.14152 c 4.85589,1.35028 5.5287,5.90919 5.5287,10.91124 0,5.01133 -0.59857,10.46114 0.74243,13.60019 l -15.68592,0 c -0.59857,-1.34564 -0.67513,-2.84208 -0.67513,-5.22941 0,-2.54279 0.8213,-5.82799 0.8213,-8.51694 0,-2.76551 -2.08574,-4.85589 -6.64929,-4.85589 l -7.09707,0 -3.88377,18.60224 -16.13832,0 11.05274,-53.34743 27.05189,0 m 72.4763,0 -2.7655,13.66978 -27.64582,0 -1.42219,6.65394 25.63432,0 -2.61935,12.70927 -25.69928,0 -1.42452,6.64233 28.24672,0 -2.83744,13.67211 -44.68665,0 11.13165,-53.34743 44.08806,0 m 25.85474,-1.26907 c 11.35436,0 21.59279,4.25266 21.29118,17.40276 l -15.16623,0 c 0.0719,-2.16463 -0.67514,-3.51025 -1.86764,-4.40116 -1.19483,-0.89787 -2.91631,-1.2041 -4.78628,-1.2041 -2.75623,0 -6.34537,0.83057 -6.34537,4.33618 0,4.03923 7.9926,4.26659 13.22667,6.12959 9.26166,3.28985 12.40535,8.36614 12.40535,14.7231 0,12.84848 -12.48657,18.89919 -24.06598,18.89919 -12.25454,0 -23.31194,-5.60758 -22.6368,-19.20544 l 15.91327,0 c 0,2.92095 0.67282,4.70971 2.01845,6.05303 1.41988,1.20411 3.36409,1.35492 6.05072,1.35492 3.21329,0 7.1713,-1.65189 7.1713,-5.16214 0,-3.88377 -5.45445,-4.40811 -12.84384,-6.87665 -6.50313,-2.16461 -12.78353,-5.60526 -12.78353,-14.49108 0,-12.02719 11.65598,-17.5582 22.41873,-17.5582"
       id="path794"
       style="fill:#ffffff;fill-opacity:1;fill-rule:nonzero;stroke:none" />
    <path
       d="m 359.07281,612.76914 c 1.20411,-4.47307 3.26433,-7.8186 6.85578,-10.76275 1.63796,-1.35491 5.75373,-3.20863 12.29399,-6.19687 3.50096,-1.5846 5.72358,-2.43839 6.32679,-4.70509 0.61946,-2.30149 -0.90946,-3.52416 -4.43594,-3.52416 -3.93947,0 -6.46369,1.85372 -7.54484,5.5171 l -8.14108,0 c 2.17621,-7.59819 8.48445,-12.0759 17.39348,-12.0759 8.95775,0 12.83689,3.75152 11.19892,9.85792 -1.11364,4.16219 -4.27587,6.86969 -10.22682,9.6352 -7.01585,3.25504 -11.20588,4.70044 -12.11766,6.42193 l 17.41436,0 -1.82358,6.78152 -27.45325,0 c 0.0905,-0.31552 0.16937,-0.63337 0.25985,-0.9489 m -17.55496,-4.61297 c 4.34083,0 7.17362,-1.76556 7.93692,-4.65636 0.81202,-3.03464 -1.03707,-4.88604 -5.15749,-4.88604 -3.83738,0 -6.66784,1.94421 -7.41259,4.74452 -0.80274,2.99055 0.88162,4.79788 4.63316,4.79788 m 5.97879,-15.55831 c 8.17821,0 11.88566,4.0717 10.13633,10.63282 -1.88388,7.00658 -8.2014,11.34278 -17.56283,11.34278 -9.72569,0 -13.44474,-5.69575 -10.54699,-16.50723 2.99055,-11.16876 10.02729,-17.00139 20.29587,-17.00139 7.59587,0 11.37989,3.93714 10.02265,9.68393 l -8.14108,0 c 0.37352,-2.22261 -1.04635,-3.34553 -4.12275,-3.34553 -4.38955,0 -7.44739,2.48247 -8.6979,7.13883 -0.0325,0.13687 -0.0859,0.31552 -0.13224,0.50112 2.56135,-1.62867 5.4939,-2.44533 8.74894,-2.44533 m -36.44092,4.4341 c 3.84667,0 6.68642,-1.99062 7.43579,-4.79324 0.80274,-2.98824 -0.88162,-4.79556 -4.6378,-4.79556 -4.34082,0 -7.18057,1.80732 -7.95547,4.70507 -0.81203,3.02536 1.0417,4.88373 5.15748,4.88373 m -7.39866,7.86731 c -0.32017,2.22262 1.01386,3.29681 4.09026,3.29681 4.38955,0 7.45203,-2.47783 8.6979,-7.13882 0.0371,-0.13689 0.0835,-0.31553 0.13224,-0.50113 -2.55902,1.62868 -5.50317,2.4871 -8.75822,2.4871 -8.18284,0 -11.87869,-4.11346 -10.12242,-10.67459 1.86302,-6.96482 8.23389,-11.30565 17.59533,-11.30565 9.72105,0 13.41226,5.65399 10.50986,16.46545 -2.99287,11.17342 -10.03656,17.0478 -20.30515,17.0478 -7.59819,0 -11.33812,-3.93018 -9.98089,-9.67697 l 8.14109,0 z m -21.79881,-12.34641 -8.6399,0 1.42916,-5.33614 0.72154,0 c 5.20621,0 8.36149,-1.4918 10.25001,-5.33845 l 6.78618,0 -8.53318,31.83816 -7.68635,0 5.67254,-21.16357 z m -58.37013,-11.48824 28.99145,0 -1.7934,6.69105 -20.80397,0 -1.45468,5.43125 18.54192,0 -1.7934,6.69105 -18.53959,0 -1.91638,7.14579 20.79933,0 -1.78876,6.69568 -28.99145,0 8.74893,-32.65482 z m -33.28727,33.51092 c -12.03183,0 -17.75773,-6.82328 -14.9783,-17.18698 2.77479,-10.35212 12.15711,-17.18468 24.18894,-17.18468 10.76042,0 16.42137,5.38021 15.26133,12.75568 l -8.90902,0 c -0.0232,-3.97891 -2.77015,-6.05999 -8.14573,-6.05999 -6.51703,0 -11.65365,3.98354 -13.39601,10.48899 -1.74701,6.5124 1.26906,10.45417 7.78148,10.45417 5.74213,0 9.99481,-2.54046 11.67917,-6.78616 l 8.95543,0 c -3.0184,8.0506 -11.67454,13.51897 -22.43729,13.51897 m -50.42763,-33.51092 10.04122,0 10.1549,23.02194 6.16671,-23.02194 7.87196,0 -8.74895,32.65482 -9.95072,0 -10.23147,-23.24466 -6.22935,23.24466 -7.82323,0 8.74893,-32.65482 z m -15.61005,0 8.18749,0 -8.75359,32.65482 -8.18283,0 8.74893,-32.65482 z m -37.669858,21.34546 c -0.0232,0.0951 -0.06032,0.232 -0.08584,0.31553 -0.972104,3.62393 1.695962,5.65862 7.985641,5.65862 4.837323,0 7.855717,-1.4918 8.535497,-4.02994 0.6705,-2.48246 -1.20875,-3.06712 -5.473019,-3.52417 l -5.635423,-0.59161 c -8.087724,-0.85843 -11.361326,-3.66105 -9.885769,-9.17352 1.647242,-6.15278 8.786062,-10.86251 18.648631,-10.86251 10.44722,0 15.15694,4.2109 13.43545,10.63283 -0.0232,0.0881 -0.0534,0.17865 -0.0719,0.26912 l -8.14339,0 c 0.50809,-3.25736 -1.71917,-4.88371 -6.695693,-4.88371 -4.705078,0 -7.621391,1.44771 -8.245488,3.75617 -0.654256,2.44302 1.340994,2.7539 5.735185,3.25504 l 5.888306,0.63338 c 7.98796,0.90482 11.14092,3.84433 9.59808,9.59343 -1.92564,7.18523 -8.86262,11.1154 -20.346908,11.1154 -11.038839,0 -15.732318,-4.2457 -13.792748,-11.47965 0.06032,-0.22736 0.116,-0.45241 0.183284,-0.68441 l 8.366131,0 z"
       id="path830"
       style="fill:#939598;fill-opacity:1;fill-rule:nonzero;stroke:none" />
    <path
       d="m 95.513932,443.89487 34.536398,0 -15.31239,42.13923 51.32201,-42.13923 45.82347,0 -55.76492,41.87938 17.00602,69.58783 -42.46866,0 -6.74441,-45.60771 -24.627423,18.68808 -9.790646,26.91963 -34.552631,0 40.573182,-111.46721 z m 498.162268,68.92453 26.73171,-40.04422 -2.38733,40.04422 -24.34438,0 z m 21.76215,42.53594 34.76375,0 0.0719,-111.46256 -37.79838,0 -82.38993,111.46256 35.18834,0 12.26846,-18.35166 38.99555,0 -1.09971,18.35166 z M 501.75641,469.18885 c 8.95079,0 14.58156,2.17621 16.8413,6.52632 2.2783,4.36403 1.27371,12.44711 -3.02071,24.25389 -3.25968,8.92759 -6.47296,15.37967 -9.64912,19.37481 -3.17617,3.95106 -6.57737,6.75833 -10.21058,8.34758 -3.64481,1.5962 -9.04591,2.40357 -16.28449,2.40357 l -8.45197,0 22.15887,-60.90617 8.6167,0 z m -74.54347,86.16464 51.25241,0 c 6.15279,0 13.36354,-0.9953 21.67166,-3.03927 6.05999,-1.47555 12.32183,-4.41971 18.75768,-8.84639 6.4312,-4.44522 12.21742,-9.93449 17.31924,-16.50257 5.10412,-6.5588 9.82776,-15.80655 14.15467,-27.70845 2.77015,-7.60284 4.48002,-14.8159 5.12036,-21.60208 0.6473,-6.78152 -0.13224,-12.7464 -2.31774,-17.86676 -2.20637,-5.10412 -5.90686,-9.04591 -11.14556,-11.7859 -5.2178,-2.72375 -12.87167,-4.1065 -22.9941,-4.1065 l -51.23152,0 -40.5871,111.45792 z m -89.39068,-111.45866 32.13978,0 19.58361,61.69732 22.46049,-61.69732 32.54577,0 -40.56159,111.46721 -32.55041,0 -19.5001,-61.37251 -22.3236,61.37251 -32.36714,0 40.57319,-111.46721 z m -112.88686,0 92.54945,0 -8.65845,23.8154 -58.02235,0 -6.41728,17.64405 53.83695,0 -8.27796,22.74353 -53.82304,0 -8.00188,22.00111 59.62551,0 -9.19208,25.26312 -94.18741,0 40.56854,-111.46721 z"
       id="path834"
       style="fill:#cc102a;fill-opacity:1;fill-rule:nonzero;stroke:none" />
  </g>
</svg>
